:SAMPLES-PER-SECOND 30
:FULLY-SPECIFIED
:DEGREES
37
root  34.83289283 36.55674551 -14.43270135 9.204264641 -4.947770596 3.35904026
lowerback  -8.065689087 -0.8747159243 -0.5741230845
upperback  -3.873769999 -0.67721802 -3.26560998
thorax  0.483844012 -0.1860039979 -3.103669882
lowerneck  -6.979849815 -13.59070015 -10.78820038
upperneck  12.10564423 -18.48735809 10.69802475
head  6.839650154 -8.677260399 3.347830057
lclavicle  0 -4.497500157e-015 -2.743230041e-014
lhumerus  -48.08140182 29.63159943 64.16619873
lradius  0.006001632661 -6.507048965e-006 30.41555786
lwrist  4.824992743e-007 -3.790274832e-007 -27.73940086
lhand  -4.415548489e-031 -36.89830017 -10.55959988
lfingers  90 7.125020027 -90
lthumb  94.79074775 -25.3976094 101.0566937
rclavicle  0 -4.497500157e-015 -2.743230041e-014
rhumerus  -56.46519852 -28.84929848 -58.12400055
rradius  -5.16745672e-007 2.214343908e-008 61.40319824
rwrist  -2.867388866e-005 0.1128110886 -165.7949982
rhand  -1.766862857e-031 -2.198319912 -7.641699791
rfingers  -90 -7.125020027 -90
rthumb  -86.48159599 -8.039988717 -66.26945796
rfemur  -11.47126484 15.6931057 12.74179363
rtibia  -0.3966097236 -1.078681827 18.9460907
rfoot  1.179064155 -21.81193542 -35.29432297
rtoes  4.073237573 19.59747599 -101.9865652
lfemur  -6.137395859 -16.13593483 -21.21728897
ltibia  4.377687931 -0.3608196974 11.61172771
lfoot  0.6902862191 -23.17697716 36.82752609
ltoes  -8.701386425 -18.07813801 -116.2524466
38
root  34.83152615 36.55734325 -14.43109137 9.19201088 -4.961641788 3.357307673
lowerback  -8.101269722 -0.9069909453 -0.6234490871
upperback  -3.864759922 -0.7170490026 -3.235290051
thorax  0.5120210052 -0.2054090053 -3.048150063
lowerneck  -6.978040218 -13.58090019 -10.84819984
upperneck  12.04430199 -18.46468735 10.6973381
head  6.822380066 -8.67261982 3.361500025
lclavicle  0 -4.497500157e-015 -2.743230041e-014
lhumerus  -48.1554985 29.76589966 64.10980225
lradius  0.006001632661 -6.507048965e-006 30.39225578
lwrist  4.824992743e-007 -3.790274832e-007 -27.92480087
lhand  -4.416926341e-031 -36.92210007 -10.63910007
lfingers  90 7.125020027 -90
lthumb  94.81878769 -25.47488462 101.0893896
rclavicle  0 -4.497500157e-015 -2.743230041e-014
rhumerus  -56.52999878 -28.56159973 -58.22159958
rradius  -5.16745672e-007 2.214343908e-008 63.14870071
rwrist  -2.867388866e-005 0.1128110886 -166.6929932
rhand  -1.766974577e-031 -2.290750027 -7.815090179
rfingers  -90 -7.125020027 -90
rthumb  -86.56887696 -7.876216657 -66.36922568
rfemur  -11.42722416 15.64617443 12.73789883
rtibia  -0.380448103 -1.117207646 18.89443207
rfoot  1.196278572 -21.88697815 -35.26237488
rtoes  4.09954899 19.59219555 -102.0650209
lfemur  -6.189897537 -16.11055565 -21.19330025
ltibia  4.331586361 -0.3580679297 11.71678734
lfoot  0.6992784142 -23.24545097 36.78599548
ltoes  -8.699288918 -18.07912128 -116.2456874
39
root  34.82799079 36.55765263 -14.4285202 9.184943199 -4.962001801 3.397406816
lowerback  -8.098890305 -0.9399319291 -0.5830927491
upperback  -3.868540049 -0.7644469738 -3.229939938
thorax  0.5039070249 -0.2297900021 -3.069279909
lowerneck  -7.003499985 -13.56919956 -10.83650017
upperneck  12.02639961 -18.44490051 10.67630005
head  6.815579891 -8.664460182 3.354520082
lclavicle  0 -4.497500157e-015 -2.743230041e-014
lhumerus  -48.25260162 29.81870079 64.00440216
lradius  0.006001632661 -6.507048965e-006 30.39714813
lwrist  4.824992743e-007 -3.790274832e-007 -28.06299973
lhand  -0 -36.89720154 -10.62040043
lfingers  90 7.125020027 -90
lthumb  94.80314035 -25.45737287 101.0610251
rclavicle  0 -4.497500157e-015 -2.743230041e-014
rhumerus  -56.63090134 -28.24430084 -58.37369919
rradius  -5.16745672e-007 2.214343908e-008 64.93160248
rwrist  -2.867388866e-005 0.1128110886 -167.5200043
rhand  -1.766390027e-031 -1.75387001 -7.743070126
rfingers  -90 -7.125020027 -90
rthumb  -86.44066155 -7.971547448 -65.84251454
rfemur  -11.43259239 15.62767792 12.70921898
rtibia  -0.3982187808 -1.142670274 18.94083977
rfoot  1.162384033 -21.94080544 -35.28013992
rtoes  4.082719133 19.59557725 -102.0148351
lfemur  -6.087521076 -16.10649109 -21.28647614
ltibia  4.432491302 -0.3725135028 11.55986977
lfoot  0.7018970847 -23.15609169 36.77410507
ltoes  -8.696739479 -18.080316 -116.2374724
40
root  34.82644089 36.55847264 -14.42556006 9.190724373 -4.988080978 3.389489889
lowerback  -8.084739685 -0.9711430073 -0.6117010117
upperback  -3.875710011 -0.8044040203 -3.220249891
thorax  0.4873690009 -0.2493609935 -3.046139956
lowerneck  -6.99861002 -13.56239986 -10.85299969
upperneck  11.99330044 -18.42899895 10.64770031
head  6.801020145 -8.661899567 3.351099968
lclavicle  0 -4.497500157e-015 -2.743230041e-014
lhumerus  -48.3492012 29.86870003 63.93780136
lradius  0.006001632661 -6.507048965e-006 30.39463425
lwrist  4.824992743e-007 -3.790274832e-007 -28.13220024
lhand  -0 -36.87879944 -10.63630009
lfingers  90 7.125020027 -90
lthumb  94.79788268 -25.47358286 101.0427593
rclavicle  0 -4.497500157e-015 -2.743230041e-014
rhumerus  -56.76699829 -27.99710083 -58.45709991
rradius  -5.16745672e-007 2.214343908e-008 66.94529724
rwrist  -2.867388866e-005 0.1128110886 -167.9960022
rhand  -1.766378794e-031 -1.741930008 -7.881420135
rfingers  -90 -7.125020027 -90
rthumb  -86.49563429 -7.845931832 -65.83871015
rfemur  -11.42466068 15.6090107 12.72071838
rtibia  -0.391898036 -1.136775613 18.91640472
rfoot  1.197306633 -21.91867065 -35.20802689
rtoes  4.060878087 19.59994412 -101.9497186
lfemur  -6.122199535 -16.07177544 -21.26340485
ltibia  4.408867836 -0.3699340224 11.61226177
lfoot  0.7024857998 -23.18527794 36.75779724
ltoes  -8.68957451 -18.08367132 -116.2143878
41
root  34.82753423 36.56002555 -14.4246169 9.225095749 -5.020611286 3.390239
lowerback  -8.074449539 -1.003399849 -0.672988832
upperback  -3.858289957 -0.8450509906 -3.204149961
thorax  0.4990960062 -0.2695890069 -2.998140097
lowerneck  -6.999499798 -13.5600996 -10.8458004
upperneck  11.92790031 -18.41930199 10.61789989
head  6.775430202 -8.662249565 3.343620062
lclavicle  0 -4.497500157e-015 -2.743230041e-014
lhumerus  -48.41770172 29.90909958 63.86949921
lradius  0.006001632661 -6.507048965e-006 30.39191628
lwrist  4.824992743e-007 -3.790274832e-007 -28.17569923
lhand  -4.412335987e-031 -36.84270096 -10.63549995
lfingers  90 7.125020027 -90
lthumb  94.78081743 -25.47403652 101.0040854
rclavicle  0 -4.497500157e-015 -2.743230041e-014
rhumerus  -56.89810181 -27.75040054 -58.50730133
rradius  -5.16745672e-007 2.214343908e-008 68.87220001
rwrist  -2.867388866e-005 0.1128110886 -168.7669983
rhand  -1.766249467e-031 -1.598039985 -7.569210052
rfingers  -90 -7.125020027 -90
rthumb  -86.33931579 -8.13857684 -65.68058208
rfemur  -11.47952652 15.60648632 12.70986938
rtibia  -0.3979048133 -1.140952826 18.93298721
rfoot  1.200056314 -21.91241074 -35.17512131
rtoes  4.073734759 19.59737654 -101.9880475
lfemur  -6.181849957 -16.05260277 -21.24875259
ltibia  4.390022278 -0.3776621521 11.65509796
lfoot  0.7033583522 -23.18047905 36.74090576
ltoes  -8.707871356 -18.07509611 -116.2733463
